<?xml version="1.0" encoding="UTF-8" standalone="no"?>
<svg
   xmlns:dc="http://purl.org/dc/elements/1.1/"
   xmlns:cc="http://creativecommons.org/ns#"
   xmlns:rdf="http://www.w3.org/1999/02/22-rdf-syntax-ns#"
   xmlns:svg="http://www.w3.org/2000/svg"
   xmlns="http://www.w3.org/2000/svg"
   viewBox="0 0 400 100"
   height="100"
   width="400"
   xml:space="preserve"
   id="svg2"
   version="1.1"><metadata
     id="metadata8"><rdf:RDF><cc:Work
         rdf:about=""><dc:format>image/svg+xml</dc:format><dc:type
           rdf:resource="http://purl.org/dc/dcmitype/StillImage" /></cc:Work></rdf:RDF></metadata><defs
     id="defs6"><clipPath
       id="clipPath114"
       clipPathUnits="userSpaceOnUse"><path
         id="path112"
         d="m 790.523,107.82 -22.746,-0.09 c -30.718,2.391 -67.398,6.09 -97.98,10.43 v 0 C 728.703,147.238 937.523,943.938 811.152,1500.58 994.98,1184.46 863.145,138.398 790.523,107.82 m -211.527,1446.4 c -11.66,13.99 -21.269,29.76 -33.867,42.73 -19.727,20.26 -36.066,32.24 -44.109,37.59 -17.778,11.97 -36.317,14.47 -53.379,7.35 1.347,0.72 3.234,1.48 4.41,2.11 l 45.086,19.79 2.086,0.61 c 34.355,6.08 67.297,-75.02 79.773,-110.18 M 472.602,175.148 c -23.012,10.614 -51.997,25.301 -74.129,37.653 l -15.805,16.418 -2.723,20.23 C 435.625,265.359 593.797,1016.91 487.563,1477.7 653.703,1246.55 533.254,191.191 474.512,176.18 M 296.031,1453.76 c -7.476,5.39 -13.636,12.85 -21.98,17.44 -5.293,2.91 -14.246,7.51 -27.379,8.77 -11.348,1.02 -23.758,0.37 -41.953,-18.03 10.25,10.33 23.91,24.27 34.054,34.63 l 0.036,0.11 c 11.054,9.23 16.25,9.89 31.812,-1.74 2.797,-2.14 12.75,-11.2 25.41,-41.18 M 215.84,355.289 203.262,368.621 c -17.946,21.117 -29.774,41.027 -46.582,63.188 l -0.676,4.882 c 2.336,-0.011 -2.473,0.028 0,0 37.273,35.688 144.012,640.769 69.109,932.239 123.364,-190.05 37.344,-971 -2.308,-1014.399 -2.106,0.231 -5.071,-0.172 -6.965,0.758 M 93.957,1271.09 c -12.6562,-3.49 -13.4492,-3.66 -20.9336,-11.66 -9.6211,-10.5 -16.4218,-25.67 -19.0351,-31.39 4.2109,9.28 9.7578,21.84 13.9609,31.21 l 0.6016,1.17 c 9.2969,16.93 17.0859,20.18 25.4062,10.67 M 50.8711,608.5 c -12.8594,26.398 -22.8828,64.559 -31.4766,92.648 l -0.8945,3.161 1.5742,-4.571 c 0.5156,-0.828 1.1172,-1.949 1.6446,-2.758 0.9687,0.09 2.3984,0.18 3.5078,0.18 17.5,26.512 63.5078,393.38 27.4218,488.72 C 114.738,1176.35 78,645 56.6563,605.93 c -1.2344,-0.16 -2.7969,-0.321 -3.9649,-0.43 -0.5664,1.051 -1.4023,2.211 -1.8203,3" /></clipPath><linearGradient
       id="linearGradient124"
       spreadMethod="pad"
       gradientTransform="matrix(-613.629,1417.33,-1417.33,-613.629,833.986,126.63)"
       gradientUnits="userSpaceOnUse"
       y2="0"
       x2="1"
       y1="0"
       x1="0"><stop
         id="stop116"
         offset="0"
         style="stop-opacity:1;stop-color:#053457" /><stop
         id="stop118"
         offset="0.526316"
         style="stop-opacity:1;stop-color:#0c6ea7" /><stop
         id="stop120"
         offset="0.63268636"
         style="stop-opacity:1;stop-color:#0c6ea7" /><stop
         id="stop122"
         offset="1"
         style="stop-opacity:1;stop-color:#52aee5" /></linearGradient><clipPath
       id="clipPath134"
       clipPathUnits="userSpaceOnUse"><path
         id="path132"
         d="M 0,0 H 5655 V 1739 H 0 Z" /></clipPath><clipPath
       id="clipPath140"
       clipPathUnits="userSpaceOnUse"><path
         id="path138"
         d="m 812.801,1721.57 -61.219,-1.18 -3.328,-0.35 C 694.652,1707.29 640.418,1634.55 616.883,915.098 616.734,909.77 605.117,351.66 636.969,181.461 649.316,114.789 649.316,114.789 767.777,107.73 l 19.489,-0.558 -2.45,0.457 c -95.234,98.672 -72.031,1576.771 25.477,1613.781 -0.824,-0.02 1.773,0.1 2.508,0.16 m -360.75,-77.57 -4.871,-2.28 -3.028,-1.62 C 394.504,1606.41 345.988,1496.59 327.246,926.195 308.34,266.84 362.613,234.301 398.473,212.801 c 21.394,-11.153 49.75,-26.25 71.683,-36.25 l -0.371,0.058 c -68.597,91.192 -86.41,1394.181 24.945,1485.981 -12.785,-5.6 -30.015,-12.73 -42.679,-18.59 m -213.278,-147.43 -34.054,-34.63 -0.129,-0.24 C 151.773,1398.78 120.543,1222.58 111.32,938.055 99.4258,486.469 134.094,447.129 203.262,368.621 l 12.375,-13.109 -3.035,4.468 c -49.161,116.211 -61.786,1025.75 24.527,1134.86 -0.453,-0.5 1.168,1.22 1.644,1.73 M 67.9492,1259.25 53.9883,1228.04 53.2148,1226.09 C 19.2305,1140.5 -0.015625,945.652 0,944.047 0.0546875,942.301 8.44141,741.527 19.3945,701.148 28.0508,673.27 40.4492,636.281 50.6211,609.039 L 49.125,613.41 C 25.0938,709.789 3.57813,1120.4 67.9492,1259.25" /></clipPath><linearGradient
       id="linearGradient156"
       spreadMethod="pad"
       gradientTransform="matrix(0,1614.4,-1614.4,0,406.399,107.17)"
       gradientUnits="userSpaceOnUse"
       y2="0"
       x2="1"
       y1="0"
       x1="0"><stop
         id="stop142"
         offset="0"
         style="stop-opacity:1;stop-color:#0c6ea7" /><stop
         id="stop144"
         offset="0.1963036"
         style="stop-opacity:1;stop-color:#00adef" /><stop
         id="stop146"
         offset="0.2"
         style="stop-opacity:1;stop-color:#00adef" /><stop
         id="stop148"
         offset="0.43263208"
         style="stop-opacity:1;stop-color:#fbc622" /><stop
         id="stop150"
         offset="0.5"
         style="stop-opacity:1;stop-color:#fbc622" /><stop
         id="stop152"
         offset="0.8"
         style="stop-opacity:1;stop-color:#00adef" /><stop
         id="stop154"
         offset="1"
         style="stop-opacity:1;stop-color:#0c6ea7" /></linearGradient></defs><g
     transform="matrix(1.3333333,0,0,-1.3333333,0,231.90667)"
     id="g10"><g
       transform="scale(0.1)"
       id="g12"><path
         id="path14"
         style="fill:#0c6ea7;fill-opacity:1;fill-rule:nonzero;stroke:none"
         d="m 1118.77,1113.06 c 0.64,75.52 1.28,149.11 1.28,223.99 0,93.43 -0.64,155.5 -3.2,222.7 l 3.2,3.2 h 33.28 c 27.52,0 46.71,0.64 73.59,1.92 l 3.84,-3.84 c -2.56,-62.72 -2.56,-106.88 -2.56,-169.59 0,-94.71 0,-161.26 3.84,-276.46 l -3.2,-3.84 c -7.04,0 -24.32,0.64 -36.48,0.64 -26.23,0 -44.79,-1.28 -70.39,-2.56 l -3.2,3.84" /><path
         id="path16"
         style="fill:#0c6ea7;fill-opacity:1;fill-rule:nonzero;stroke:none"
         d="m 1438.76,1191.14 c 42.23,0 72.31,1.91 114.55,3.2 l 3.2,-3.84 c -1.92,-28.16 -3.2,-47.36 -4.48,-75.52 l -3.2,-3.84 h -26.88 c -79.36,0 -134.39,0 -213.75,-1.92 l -3.19,3.84 c 1.91,62.08 1.91,106.24 1.91,168.31 0,39.03 -1.91,243.82 -4.47,278.38 l 3.2,3.84 h 39.67 c 74.24,0 126.07,0 200.31,1.28 l 3.2,-3.84 c -1.28,-26.24 -2.56,-44.8 -3.2,-71.04 l -3.84,-3.83 c -16,0 -50.56,1.27 -80,1.27 -8.96,0 -17.91,-0.63 -50.55,-0.63 0,-5.76 -0.64,-27.52 -0.64,-40.96 0,-24.32 0.64,-51.2 0.64,-64.64 h 27.52 c 35.84,0 73.59,1.28 96.63,1.93 l 3.84,-3.85 c -0.64,-19.2 -2.56,-43.51 -3.84,-68.48 l -3.84,-3.84 h -119.03 v -115.82 h 26.24" /><path
         id="path18"
         style="fill:#0c6ea7;fill-opacity:1;fill-rule:nonzero;stroke:none"
         d="m 1745.31,1191.14 c 42.23,0 72.31,1.91 114.55,3.2 l 3.2,-3.84 c -1.92,-28.16 -3.2,-47.36 -4.48,-75.52 l -3.2,-3.84 h -26.88 c -79.35,0 -134.39,0 -213.74,-1.92 l -3.2,3.84 c 1.92,62.08 1.92,106.24 1.92,168.31 0,39.03 -1.92,243.82 -4.48,278.38 l 3.2,3.84 h 39.68 c 74.23,0 126.07,0 200.3,1.28 l 3.2,-3.84 c -1.28,-26.24 -2.56,-44.8 -3.2,-71.04 l -3.84,-3.83 c -16,0 -50.56,1.27 -79.99,1.27 -8.96,0 -17.92,-0.63 -50.56,-0.63 0,-5.76 -0.64,-27.52 -0.64,-40.96 0,-24.32 0.64,-51.2 0.64,-64.64 h 27.52 c 35.84,0 73.59,1.28 96.63,1.93 l 3.84,-3.85 c -0.64,-19.2 -2.56,-43.51 -3.84,-68.48 l -3.84,-3.84 h -119.03 v -115.82 h 26.24" /><path
         id="path20"
         style="fill:#0c6ea7;fill-opacity:1;fill-rule:nonzero;stroke:none"
         d="m 2051.86,1191.14 c 42.24,0 72.32,1.91 114.55,3.2 l 3.21,-3.84 c -1.93,-28.16 -3.21,-47.36 -4.49,-75.52 l -3.2,-3.84 h -26.88 c -79.35,0 -134.39,0 -213.74,-1.92 l -3.2,3.84 c 1.92,62.08 1.92,106.24 1.92,168.31 0,39.03 -1.92,243.82 -4.48,278.38 l 3.2,3.84 h 39.68 c 74.23,0 126.07,0 200.31,1.28 l 3.19,-3.84 c -1.27,-26.24 -2.55,-44.8 -3.19,-71.04 l -3.85,-3.83 c -15.99,0 -50.55,1.27 -79.99,1.27 -8.96,0 -17.92,-0.63 -50.56,-0.63 0,-5.76 -0.64,-27.52 -0.64,-40.96 0,-24.32 0.64,-51.2 0.64,-64.64 h 27.52 c 35.84,0 73.6,1.28 96.63,1.93 l 3.84,-3.85 c -0.63,-19.2 -2.55,-43.51 -3.84,-68.48 l -3.84,-3.84 h -119.03 v -115.82 h 26.24" /><path
         id="path22"
         style="fill:#00adef;fill-opacity:1;fill-rule:nonzero;stroke:none"
         d="m 2700.64,1596.63 -5.22,-5.22 c -42.64,0.88 -88.75,2.61 -132.26,4.35 0,-41.76 -0.86,-87 -0.86,-251.44 0,-75.7 1.73,-151.39 4.35,-227.09 l -5.22,-6.09 h -97.45 c -25.23,0 -63.52,-1.74 -84.4,-2.61 l -5.22,5.22 c 3.48,60.91 5.22,426.33 5.22,480.27 -46.11,-0.87 -92.23,-1.73 -138.33,-3.48 l -4.35,5.22 c 1.73,39.16 4.35,82.66 5.22,125.29 l 6.08,4.35 h 252.32 c 67,0 134.86,0.87 202.73,2.61 l 5.22,-3.48 c -3.48,-23.49 -5.22,-48.72 -7.83,-127.9" /><path
         id="path24"
         style="fill:#00adef;fill-opacity:1;fill-rule:nonzero;stroke:none"
         d="m 2940.73,1245.13 c 73.96,0 147.91,1.74 221.87,5.22 l 4.35,-5.22 c -3.48,-42.63 -6.09,-85.26 -8.7,-128.77 l -6.96,-5.22 c -53.95,0 -166.18,0.87 -166.18,0.87 -73.09,0 -189.67,-2.61 -227.95,-3.48 l -4.36,6.96 c 2.61,92.23 3.48,185.32 3.48,278.42 0,127.9 0,207.95 -5.21,327.14 l 5.21,4.35 H 2959 c 62.65,0 137.48,0 188.81,2.61 l 4.35,-6.09 c -4.35,-40.02 -4.35,-79.17 -6.96,-119.2 l -5.22,-5.22 c -25.23,0 -79.18,0.88 -118.33,0.88 H 2939 c 0,-18.28 0.86,-111.37 0.86,-111.37 55.69,0.87 126.17,3.48 189.68,3.48 l 6.09,-6.1 c -3.48,-39.15 -5.22,-75.69 -6.96,-113.97 l -6.09,-5.22 c -60.91,0 -120.94,0 -181.85,0.87 v -120.94" /><path
         id="path26"
         style="fill:#00adef;fill-opacity:1;fill-rule:nonzero;stroke:none"
         d="m 3694.59,1725.4 c 78.31,0 191.42,1.74 234.91,2.61 l 6.1,-5.22 c 5.22,-202.72 17.4,-403.7 28.71,-606.43 l -6.09,-5.22 h -78.31 c -26.1,0 -66.12,-1.74 -91.35,-2.61 l -4.35,6.1 c -2.62,140.07 -7.83,306.25 -7.83,469.82 -27.84,-106.15 -92.23,-344.54 -124.42,-468.09 l -6.96,-5.22 h -40.9 c -8.7,0 -26.09,0 -94.83,-2.61 l -6.1,5.22 c -22.61,91.36 -46.98,182.71 -126.15,475.92 -5.22,-203.59 -6.96,-282.77 -6.96,-361.94 0,-37.41 0.87,-73.96 1.74,-111.37 l -6.09,-5.22 c -47.85,0 -96.58,-0.87 -144.43,-2.61 l -5.21,5.22 c 15.65,201.86 22.61,404.58 29.58,607.3 l 4.34,4.35 h 103.54 c 41.76,0 96.58,1.74 137.47,2.61 l 5.22,-2.61 c 31.32,-125.29 64.39,-247.97 96.57,-372.38 30.45,122.68 66.13,245.36 95.71,368.9 l 6.09,3.48" /><path
         id="path28"
         style="fill:#00adef;fill-opacity:1;fill-rule:nonzero;stroke:none"
         d="m 4038.19,1278.19 c 50.46,-48.73 129.64,-51.33 149.65,-51.33 56.56,0 82.66,27.84 82.66,55.68 0,35.67 -33.94,51.34 -60.91,61.78 l -44.37,17.4 c -133.12,52.2 -140.95,134.85 -140.95,185.32 0,80.05 38.28,192.28 231.43,192.28 26.11,0 89.62,-0.87 163.58,-34.8 l 3.47,-5.22 c -3.47,-40.89 -5.22,-89.62 -7.83,-134.86 l -7.83,-3.48 c -19.14,15.66 -63.51,53.07 -134.85,53.07 -45.25,0 -65.26,-28.71 -65.26,-52.2 0,-30.45 25.23,-43.5 58.29,-57.42 l 60.03,-25.23 c 99.19,-41.77 129.64,-100.06 129.64,-174.88 0,-49.6 -20.01,-107.89 -61.77,-145.31 -53.94,-48.72 -117.46,-60.9 -197.5,-60.9 -20.01,0 -105.28,1.74 -164.44,28.71 l -6.96,8.7 c 3.48,46.98 6.09,94.84 6.09,140.08 l 7.83,2.61" /><path
         id="path30"
         style="fill:#0c6ea7;fill-opacity:1;fill-rule:nonzero;stroke:none"
         d="m 1328.84,890.711 c -0.88,-7.481 -1.32,-14.52 -1.76,-22 l -2.64,-2.203 c -30.36,1.762 -60.29,2.203 -90.65,2.203 0,-25.969 0,-92.414 0.44,-139.063 0.44,-40.929 2.2,-108.25 3.08,-145.66 l -2.64,-3.078 c -9.24,0 -17.6,0 -26.41,-0.441 l -3.08,2.64 c 0.89,34.321 0.89,68.653 0.89,102.973 v 68.211 c 0,37.844 0,76.133 -0.89,113.977 -12.32,0 -93.73,-1.762 -93.73,-1.762 l -2.64,2.64 1.76,21.563 3.08,2.203 c 14.96,-0.883 43.13,-1.324 58.53,-1.324 h 83.17 c 21.56,0 49.73,0.879 70.85,1.324 l 2.64,-2.203" /><path
         id="path32"
         style="fill:#0c6ea7;fill-opacity:1;fill-rule:nonzero;stroke:none"
         d="m 1461.72,719.09 c 0,2.64 -0.44,8.801 -1.32,14.961 -2.65,16.719 -14.53,55.883 -64.25,55.883 -5.72,0 -20.69,-0.438 -35.65,-8.797 -23.32,-12.762 -33.88,-37.407 -37.4,-62.047 z m 26.4,-22.449 h -166.34 v -1.762 c 0,-11.879 1.32,-36.957 16.28,-59.399 15.84,-23.332 41.36,-35.21 69.53,-35.21 28.16,0 53.25,11.441 72.61,29.05 l 3.52,-2.211 c -0.88,-8.359 -1.32,-16.718 -1.76,-25.078 l -2.2,-4.402 c -21.56,-11.438 -35.64,-21.559 -76.13,-21.559 -67.33,0 -110.02,45.328 -110.02,118.371 0,8.368 0.88,30.809 9.69,54.133 15.4,40.043 50.6,62.93 94.61,62.93 43.13,0 92.85,-23.328 92.85,-108.695 v -3.079 l -2.64,-3.089" /><path
         id="path34"
         style="fill:#0c6ea7;fill-opacity:1;fill-rule:nonzero;stroke:none"
         d="m 1687.88,623.148 c -0.89,-8.796 -2.21,-17.16 -2.64,-25.957 l -3.53,-5.281 c -15.84,-8.801 -29.04,-16.289 -60.72,-16.289 -7.48,0 -27.73,0.891 -47.53,10.129 -23.76,11 -57.21,40.48 -57.21,105.172 0,66.891 37.41,120.582 109.14,120.582 27.28,0 39.16,-5.285 56.76,-14.965 l 2.21,-3.961 c -0.88,-3.523 -2.21,-16.726 -3.08,-24.644 l -3.96,-1.758 c -14.97,13.637 -31.25,21.125 -52.37,21.125 -30.37,0 -80.97,-19.367 -80.97,-95.492 0,-55.887 30.36,-92.418 78.33,-92.418 34.32,0 53.24,18.039 61.17,25.519 l 4.4,-1.762" /><path
         id="path36"
         style="fill:#0c6ea7;fill-opacity:1;fill-rule:nonzero;stroke:none"
         d="m 1715.14,583.109 v 210.786 c 0,43.128 -0.44,86.695 -4.4,129.378 l 2.63,2.645 c 9.25,0.879 18.93,2.641 27.73,4.398 l 2.64,-2.64 c -0.88,-30.363 -1.76,-51.485 -1.76,-90.211 0,-24.203 0.44,-38.285 0.44,-54.125 10.56,7.48 40.05,28.164 79.21,28.164 35.21,0 52.81,-18.488 59.85,-31.691 7.92,-14.52 8.36,-43.122 8.36,-61.165 0,-22.449 0.44,-88.457 3.52,-135.097 l -2.64,-2.641 c -8.8,-0.441 -17.6,-0.879 -26.4,-0.879 l -2.2,3.078 c 0.44,20.68 0.44,40.922 0.44,61.61 v 57.64 c 0,35.653 0,55.891 -11.89,69.973 -13.19,15.406 -32.56,15.844 -38.28,15.844 -26.4,0 -45.77,-12.324 -69.97,-29.926 0,-58.09 0.88,-116.621 3.52,-174.699 l -2.64,-2.641 c -8.36,0 -17.16,0 -25.52,-0.441 l -2.64,2.64" /><path
         id="path38"
         style="fill:#0c6ea7;fill-opacity:1;fill-rule:nonzero;stroke:none"
         d="m 1946.57,582.66 c 0,11.891 0.88,38.738 0.88,59.86 0,15.402 -0.88,73.48 -0.88,83.171 0,10.559 -1.32,50.606 -3.96,75.692 l 2.2,3.078 c 9.24,1.758 18.93,3.078 26.85,4.398 l 2.64,-2.64 c -0.44,-4.836 -1.76,-15.399 -1.76,-22.879 35.2,23.758 61.61,28.164 80.09,28.164 35.2,0 52.37,-17.609 59.41,-30.367 7.92,-14.524 8.8,-30.367 9.24,-62.489 0.88,-50.609 0.88,-87.578 3.52,-135.097 l -2.64,-2.641 c -8.8,0 -23.77,-0.879 -26.41,-0.879 l -2.19,3.078 c 0.44,20.243 0.87,40.481 0.87,60.731 0,23.762 0,101.211 -5.72,116.613 -9.24,25.524 -36.52,26.848 -44,26.848 -34.33,0 -62.49,-22.449 -71.29,-29.488 0.44,-57.211 1.76,-117.493 3.96,-174.262 l -2.64,-2.641 c -6.6,0 -22.89,-0.879 -25.97,-0.879 l -2.2,2.629" /><path
         id="path40"
         style="fill:#0c6ea7;fill-opacity:1;fill-rule:nonzero;stroke:none"
         d="m 2266.9,788.617 c -60.29,0 -73.05,-51.488 -73.05,-95.058 0,-59.411 24.2,-94.61 71.73,-94.61 36.96,0 72.61,18.039 72.61,96.821 0,65.121 -31.25,92.847 -71.29,92.847 z m -0.88,-212.996 c -54.57,0 -101.65,31.688 -101.65,118.82 0,80.094 44,117.063 104.29,117.063 98.58,0 99.02,-101.215 99.02,-115.734 0,-86.258 -47.53,-120.149 -101.66,-120.149" /><path
         id="path42"
         style="fill:#0c6ea7;fill-opacity:1;fill-rule:nonzero;stroke:none"
         d="m 2438.05,580.91 c -7.92,0 -21.13,-0.441 -25.52,-0.441 l -2.65,2.64 v 211.668 c 0,42.688 -0.88,85.813 -4.4,128.496 l 2.65,2.645 c 3.96,0.879 18.92,3.082 27.72,4.398 l 2.64,-2.64 c -0.88,-38.281 -1.32,-76.571 -1.32,-114.856 0,-166.789 2.64,-203.308 3.52,-229.269 l -2.64,-2.641" /><path
         id="path44"
         style="fill:#0c6ea7;fill-opacity:1;fill-rule:nonzero;stroke:none"
         d="m 2582.81,788.617 c -60.28,0 -73.04,-51.488 -73.04,-95.058 0,-59.411 24.2,-94.61 71.73,-94.61 36.96,0 72.6,18.039 72.6,96.821 0,65.121 -31.24,92.847 -71.29,92.847 z m -0.88,-212.996 c -54.57,0 -101.65,31.688 -101.65,118.82 0,80.094 44.01,117.063 104.3,117.063 98.57,0 99,-101.215 99,-115.734 0,-86.258 -47.51,-120.149 -101.65,-120.149" /><path
         id="path46"
         style="fill:#0c6ea7;fill-opacity:1;fill-rule:nonzero;stroke:none"
         d="m 2800.61,785.535 c -22.88,0 -59.41,-12.32 -59.41,-58.523 0,-33.891 25.08,-55.012 57.65,-55.012 33.45,0 57.65,22.441 57.65,58.09 0,29.922 -20.69,55.445 -55.89,55.445 z M 2735.92,544.82 c 0,-18.929 13.64,-52.8 67.77,-52.8 37.84,0 64.25,20.23 64.25,49.718 0,16.731 -5.28,33 -52.81,46.653 l -44.01,12.757 c -27.28,-21.117 -35.2,-40.046 -35.2,-56.328 z m 167.23,259.196 c -0.88,-3.957 -1.33,-14.961 -1.77,-18.039 l -3.08,-2.637 c -9.24,0.879 -29.92,1.758 -44,2.637 14.08,-11.442 29.48,-28.164 29.48,-58.965 0,-35.653 -26.85,-76.133 -83.17,-76.133 -5.29,0 -12.77,0.441 -22.01,3.082 -5.28,-7.481 -9.67,-15.852 -14.08,-23.77 l 75.26,-22.441 c 37.84,-11.441 56.76,-33.879 56.76,-63.371 0,-39.609 -36.08,-74.379 -94.62,-74.379 -55.44,0 -93.29,30.809 -93.29,70.859 0,33.012 21.57,51.493 42.25,66.891 -6.6,2.641 -12.76,5.719 -19.37,7.922 l -1.31,4.84 c 9.68,13.636 17.6,26.41 24.64,39.609 -21.12,11.879 -40.92,29.481 -40.92,66.891 0,40.48 25.51,80.965 93.29,80.965 24.65,0 29.48,-0.438 36.08,-0.438 h 58.09 l 1.77,-3.523" /><path
         id="path48"
         style="fill:#0c6ea7;fill-opacity:1;fill-rule:nonzero;stroke:none"
         d="m 3099.81,803.137 c -6.16,-11.438 -21.57,-53.246 -59.85,-157.547 -20.24,-55 -42.24,-111.328 -57.21,-168.102 l -3.08,-2.636 c -3.08,0 -13.64,0.437 -19.81,0.437 h -7.48 l -2.63,2.641 c 20.68,45.761 30.36,72.172 42.24,107.379 -14.08,37.839 -27.28,74.371 -42.24,111.773 -4.85,11.879 -37.41,93.297 -42.69,105.176 l 2.64,3.961 c 8.81,0.879 18.48,1.32 25.96,2.203 l 3.97,-3.082 c 11.44,-33.008 23.76,-68.211 35.64,-101.219 l 30.81,-84.492 c 46.21,131.141 53.25,153.586 61.61,183.508 l 4.39,3.523 h 24.65 l 3.08,-3.523" /><path
         id="path50"
         style="fill:#0c6ea7;fill-opacity:1;fill-rule:nonzero;stroke:none"
         d="m 3374.8,820.301 c 0,22.883 -18.05,39.605 -42.69,39.605 -24.65,0 -43.12,-17.601 -43.12,-41.363 0,-16.285 9.23,-34.766 32.11,-63.367 36.53,20.676 53.7,39.601 53.7,65.125 z m -62.93,-96.813 c -35.65,-19.367 -53.26,-38.289 -53.26,-68.648 0,-32.129 24.21,-54.129 58.54,-54.129 26.4,0 40.92,8.359 66.88,34.32 z M 3462.8,580.91 c -14.96,-0.441 -18.47,-0.441 -32.12,-1.32 l -3.96,1.762 c -9.24,12.32 -18.48,24.199 -28.16,36.078 -30.37,-29.481 -52.81,-40.481 -86.25,-40.481 -47.97,0 -84.06,33.442 -84.06,78.332 0,39.16 20.69,59.41 69.97,87.129 -24.2,27.727 -36.08,51.93 -36.08,73.492 0,37.848 31.24,66.891 71.73,66.891 39.61,0 68.21,-26.406 68.21,-62.492 0,-32.563 -17.61,-54.125 -67.33,-83.172 l 66.45,-81.848 c 12.32,16.278 19.36,29.039 30.36,54.117 l 3.52,0.891 c 6.6,-8.809 8.37,-11 15.85,-19.809 l 0.44,-3.96 c -9.69,-17.598 -18.49,-29.481 -33.89,-49.282 19.37,-22.449 29.04,-33.008 47.53,-51.929 l -2.21,-4.399" /><path
         id="path52"
         style="fill:#0c6ea7;fill-opacity:1;fill-rule:nonzero;stroke:none"
         d="m 3689.82,754.73 c 31.25,0 61.61,0 92.86,1.325 l 2.63,-3.082 c -0.88,-6.602 -1.31,-12.762 -1.31,-19.364 l -3.97,-2.64 c -17.6,0.883 -24.2,0.883 -49.29,0.883 -9.67,0 -58.52,-0.442 -83.61,-0.442 0,-42.25 0.88,-90.648 1.76,-126.738 88.45,0 90.65,0.879 143.9,1.758 l 1.76,-2.641 -1.32,-20.68 -2.19,-2.64 c -17.17,0 -25.97,0.441 -51.5,0.441 h -77.89 c -11.87,0 -28.6,-0.879 -40.48,-1.762 l -3.08,3.512 c 0.88,22.449 0.88,44.891 0.88,67.34 0,30.801 0,62.039 -0.44,92.852 0,17.16 -3.08,129.82 -3.52,146.543 l 2.64,3.074 c 13.64,-0.438 36.52,-0.879 57.2,-0.879 h 52.38 c 12.31,0 40.92,0.879 62.04,0.879 l 2.64,-2.196 c -0.87,-6.164 -0.87,-14.082 -1.31,-21.125 l -3.53,-2.64 c -37.84,1.324 -77.01,1.324 -141.26,1.762 0,-7.04 0.44,-28.602 0.44,-51.489 V 754.73 h 43.57" /><path
         id="path54"
         style="fill:#0c6ea7;fill-opacity:1;fill-rule:nonzero;stroke:none"
         d="m 3835.44,582.66 c 0,11.891 0.89,38.738 0.89,59.86 0,15.402 -0.89,73.48 -0.89,83.171 0,10.559 -1.32,50.606 -3.95,75.692 l 2.19,3.078 c 9.25,1.758 18.93,3.078 26.85,4.398 l 2.63,-2.64 c -0.43,-4.836 -1.75,-15.399 -1.75,-22.879 35.2,23.758 61.61,28.164 80.09,28.164 35.2,0 52.37,-17.609 59.41,-30.367 7.92,-14.524 8.8,-30.367 9.24,-62.489 0.88,-50.609 0.88,-87.578 3.52,-135.097 l -2.64,-2.641 c -8.8,0 -23.76,-0.879 -26.4,-0.879 l -2.21,3.078 c 0.44,20.243 0.88,40.481 0.88,60.731 0,23.762 0,101.211 -5.71,116.613 -9.25,25.524 -36.53,26.848 -44.01,26.848 -34.32,0 -62.49,-22.449 -71.29,-29.488 0.44,-57.211 1.75,-117.493 3.96,-174.262 l -2.65,-2.641 c -6.59,0 -22.88,-0.879 -25.95,-0.879 l -2.21,2.629" /><path
         id="path56"
         style="fill:#0c6ea7;fill-opacity:1;fill-rule:nonzero;stroke:none"
         d="m 4142.14,785.535 c -22.88,0 -59.4,-12.32 -59.4,-58.523 0,-33.891 25.07,-55.012 57.64,-55.012 33.45,0 57.65,22.441 57.65,58.09 0,29.922 -20.69,55.445 -55.89,55.445 z M 4077.45,544.82 c 0,-18.929 13.64,-52.8 67.78,-52.8 37.84,0 64.24,20.23 64.24,49.718 0,16.731 -5.28,33 -52.81,46.653 l -44,12.757 c -27.29,-21.117 -35.21,-40.046 -35.21,-56.328 z m 167.23,259.196 c -0.88,-3.957 -1.32,-14.961 -1.77,-18.039 l -3.08,-2.637 c -9.23,0.879 -29.92,1.758 -44,2.637 14.08,-11.442 29.48,-28.164 29.48,-58.965 0,-35.653 -26.84,-76.133 -83.17,-76.133 -5.28,0 -12.76,0.441 -22,3.082 -5.29,-7.481 -9.68,-15.852 -14.08,-23.77 l 75.25,-22.441 c 37.84,-11.441 56.77,-33.879 56.77,-63.371 0,-39.609 -36.09,-74.379 -94.62,-74.379 -55.45,0 -93.29,30.809 -93.29,70.859 0,33.012 21.56,51.493 42.24,66.891 -6.6,2.641 -12.76,5.719 -19.36,7.922 l -1.32,4.84 c 9.68,13.636 17.61,26.41 24.65,39.609 -21.13,11.879 -40.93,29.481 -40.93,66.891 0,40.48 25.52,80.965 93.29,80.965 24.65,0 29.48,-0.438 36.09,-0.438 h 58.08 l 1.77,-3.523" /><path
         id="path58"
         style="fill:#0c6ea7;fill-opacity:1;fill-rule:nonzero;stroke:none"
         d="m 4308.89,580.91 c -21.56,-0.441 -26.41,-0.441 -26.41,-0.441 l -2.21,2.191 c 0,11.449 0.45,42.25 0.45,55.891 0,33.449 -0.45,108.699 -3.96,162.832 l 2.64,2.633 26.4,3.961 2.64,-2.637 c -0.88,-20.242 -1.32,-30.367 -1.32,-47.527 0,-56.333 1.77,-117.934 4.4,-174.262 z M 4275,881.469 c 0,8.804 0.44,22.008 0.44,27.285 l 3.52,3.519 c 9.24,0.879 19.36,2.204 28.16,2.645 l 3.09,-3.523 c 0,-9.243 -0.44,-22 -0.44,-27.286 l -3.09,-3.519 c -4.39,-0.879 -18.92,-1.758 -28.16,-2.641 l -3.52,3.52" /><path
         id="path60"
         style="fill:#0c6ea7;fill-opacity:1;fill-rule:nonzero;stroke:none"
         d="m 4364.31,582.66 c 0,11.891 0.89,38.738 0.89,59.86 0,15.402 -0.89,73.48 -0.89,83.171 0,10.559 -1.32,50.606 -3.96,75.692 l 2.2,3.078 c 9.25,1.758 18.93,3.078 26.85,4.398 l 2.63,-2.64 c -0.44,-4.836 -1.76,-15.399 -1.76,-22.879 35.21,23.758 61.62,28.164 80.1,28.164 35.2,0 52.37,-17.609 59.41,-30.367 7.92,-14.524 8.8,-30.367 9.23,-62.489 0.88,-50.609 0.88,-87.578 3.53,-135.097 l -2.65,-2.641 c -8.8,0 -23.76,-0.879 -26.39,-0.879 l -2.21,3.078 c 0.44,20.243 0.88,40.481 0.88,60.731 0,23.762 0,101.211 -5.71,116.613 -9.25,25.524 -36.54,26.848 -44.02,26.848 -34.31,0 -62.48,-22.449 -71.29,-29.488 0.44,-57.211 1.76,-117.493 3.97,-174.262 l -2.65,-2.641 c -6.59,0 -22.88,-0.879 -25.96,-0.879 l -2.2,2.629" /><path
         id="path62"
         style="fill:#0c6ea7;fill-opacity:1;fill-rule:nonzero;stroke:none"
         d="m 4749.77,719.09 c 0,2.64 -0.44,8.801 -1.32,14.961 -2.64,16.719 -14.52,55.883 -64.25,55.883 -5.72,0 -20.68,-0.438 -35.64,-8.797 -23.32,-12.762 -33.89,-37.407 -37.41,-62.047 z m 26.4,-22.449 h -166.34 v -1.762 c 0,-11.879 1.32,-36.957 16.28,-59.399 15.84,-23.332 41.37,-35.21 69.54,-35.21 28.16,0 53.24,11.441 72.6,29.05 l 3.52,-2.211 c -0.88,-8.359 -1.32,-16.718 -1.76,-25.078 l -2.2,-4.402 c -21.56,-11.438 -35.64,-21.559 -76.13,-21.559 -67.32,0 -110.02,45.328 -110.02,118.371 0,8.368 0.89,30.809 9.69,54.133 15.4,40.043 50.6,62.93 94.61,62.93 43.12,0 92.85,-23.328 92.85,-108.695 v -3.079 l -2.64,-3.089" /><path
         id="path64"
         style="fill:#0c6ea7;fill-opacity:1;fill-rule:nonzero;stroke:none"
         d="m 4971.96,719.09 c 0,2.64 -0.44,8.801 -1.31,14.961 -2.64,16.719 -14.53,55.883 -64.25,55.883 -5.73,0 -20.69,-0.438 -35.65,-8.797 -23.32,-12.762 -33.88,-37.407 -37.4,-62.047 z m 26.41,-22.449 h -166.35 v -1.762 c 0,-11.879 1.33,-36.957 16.29,-59.399 15.84,-23.332 41.37,-35.21 69.53,-35.21 28.17,0 53.24,11.441 72.61,29.05 l 3.52,-2.211 c -0.88,-8.359 -1.32,-16.718 -1.76,-25.078 l -2.2,-4.402 c -21.56,-11.438 -35.64,-21.559 -76.13,-21.559 -67.34,0 -110.02,45.328 -110.02,118.371 0,8.368 0.89,30.809 9.69,54.133 15.4,40.043 50.6,62.93 94.61,62.93 43.12,0 92.85,-23.328 92.85,-108.695 v -3.079 l -2.64,-3.089" /><path
         id="path66"
         style="fill:#0c6ea7;fill-opacity:1;fill-rule:nonzero;stroke:none"
         d="m 5132.56,777.176 c -4.41,2.199 -9.25,5.719 -18.93,5.719 -8.8,0 -25.96,-4.399 -35.2,-22.883 -7.48,-14.52 -9.24,-33 -9.24,-69.09 0,-34.762 1.32,-72.172 2.64,-107.371 l -2.64,-2.641 c -3.96,0 -17.61,-0.441 -26.41,-0.441 l -2.64,2.64 c 0.45,24.2 1.33,48.403 1.33,72.61 0,80.972 -0.88,113.539 -3.97,145.664 l 2.64,2.633 c 8.81,1.324 19.36,2.644 25.96,3.961 l 2.65,-2.637 c -0.45,-11.445 -0.45,-22.883 -0.45,-34.766 6.6,19.36 23.33,40.043 48.41,40.043 9.25,0 14.52,-2.64 19.8,-4.398 l 3.09,-3.082 c -1.33,-6.16 -2.21,-15.836 -3.53,-23.324 l -3.51,-2.637" /><path
         id="path68"
         style="fill:#0c6ea7;fill-opacity:1;fill-rule:nonzero;stroke:none"
         d="m 5190.63,580.91 c -21.57,-0.441 -26.41,-0.441 -26.41,-0.441 l -2.21,2.191 c 0,11.449 0.45,42.25 0.45,55.891 0,33.449 -0.45,108.699 -3.96,162.832 l 2.63,2.633 26.41,3.961 2.64,-2.637 c -0.88,-20.242 -1.32,-30.367 -1.32,-47.527 0,-56.333 1.77,-117.934 4.4,-174.262 z m -33.89,300.559 c 0,8.804 0.44,22.008 0.44,27.285 l 3.51,3.519 c 9.25,0.879 19.37,2.204 28.17,2.645 l 3.08,-3.523 c 0,-9.243 -0.44,-22 -0.44,-27.286 l -3.08,-3.519 c -4.4,-0.879 -18.92,-1.758 -28.17,-2.641 l -3.51,3.52" /><path
         id="path70"
         style="fill:#0c6ea7;fill-opacity:1;fill-rule:nonzero;stroke:none"
         d="m 5246.05,582.66 c 0,11.891 0.88,38.738 0.88,59.86 0,15.402 -0.88,73.48 -0.88,83.171 0,10.559 -1.32,50.606 -3.96,75.692 l 2.2,3.078 c 9.25,1.758 18.92,3.078 26.84,4.398 l 2.64,-2.64 c -0.44,-4.836 -1.76,-15.399 -1.76,-22.879 35.21,23.758 61.61,28.164 80.1,28.164 35.2,0 52.36,-17.609 59.4,-30.367 7.92,-14.524 8.8,-30.367 9.24,-62.489 0.88,-50.609 0.88,-87.578 3.53,-135.097 l -2.65,-2.641 c -8.8,0 -23.76,-0.879 -26.4,-0.879 l -2.2,3.078 c 0.44,20.243 0.88,40.481 0.88,60.731 0,23.762 0,101.211 -5.72,116.613 -9.24,25.524 -36.53,26.848 -44.01,26.848 -34.32,0 -62.48,-22.449 -71.29,-29.488 0.44,-57.211 1.76,-117.493 3.97,-174.262 l -2.65,-2.641 c -6.59,0 -22.88,-0.879 -25.96,-0.879 l -2.2,2.629" /><path
         id="path72"
         style="fill:#0c6ea7;fill-opacity:1;fill-rule:nonzero;stroke:none"
         d="m 5552.73,785.535 c -22.88,0 -59.4,-12.32 -59.4,-58.523 0,-33.891 25.08,-55.012 57.65,-55.012 33.44,0 57.64,22.441 57.64,58.09 0,29.922 -20.68,55.445 -55.89,55.445 z M 5488.05,544.82 c 0,-18.929 13.64,-52.8 67.77,-52.8 37.84,0 64.25,20.23 64.25,49.718 0,16.731 -5.28,33 -52.81,46.653 l -44.01,12.757 c -27.28,-21.117 -35.2,-40.046 -35.2,-56.328 z m 167.22,259.196 c -0.87,-3.957 -1.32,-14.961 -1.76,-18.039 l -3.08,-2.637 c -9.24,0.879 -29.92,1.758 -44,2.637 14.08,-11.442 29.48,-28.164 29.48,-58.965 0,-35.653 -26.85,-76.133 -83.18,-76.133 -5.28,0 -12.76,0.441 -22,3.082 -5.28,-7.481 -9.67,-15.852 -14.08,-23.77 l 75.25,-22.441 c 37.85,-11.441 56.77,-33.879 56.77,-63.371 0,-39.609 -36.08,-74.379 -94.62,-74.379 -55.45,0 -93.29,30.809 -93.29,70.859 0,33.012 21.56,51.493 42.25,66.891 -6.6,2.641 -12.77,5.719 -19.37,7.922 l -1.32,4.84 c 9.69,13.636 17.61,26.41 24.65,39.609 -21.12,11.879 -40.92,29.481 -40.92,66.891 0,40.48 25.51,80.965 93.29,80.965 24.64,0 29.48,-0.438 36.08,-0.438 h 58.09 l 1.76,-3.523" /><path
         id="path74"
         style="fill:#0c6ea7;fill-opacity:1;fill-rule:nonzero;stroke:none"
         d="m 1404.97,113.102 c 0,43.117 -3.52,235.878 -4.4,293.519 l -96.37,-293.082 -3.53,-2.641 c -5.71,0.442 -11,0.442 -17.59,0.442 -6.17,0 -11.89,0 -18.49,-0.442 l -2.64,3.082 -87.13,287.36 -7.04,-162.379 c -1.76,-41.813 -3.96,-83.18 -3.96,-125.422 l -2.64,-2.641 c -8.37,0 -16.29,0 -24.21,-0.437 l -2.64,3.519 c 2.64,22.891 3.52,44.45 4.85,67.329 10.12,167.671 11.88,198.472 11.88,229.281 v 8.801 l 2.2,2.199 c 13.64,0 25.96,0 40.48,0.871 l 3.08,-2.629 c 3.52,-14.082 8.36,-26.852 12.32,-40.492 l 75.69,-246.879 c 77.46,232.359 87.14,259.641 96.38,286.93 l 2.64,2.199 c 13.2,0 25.97,0.441 39.16,1.308 l 3.08,-3.507 c 0.88,-32.571 6.17,-270.211 10.57,-305.411 l -2.65,-3.082 c -8.79,0 -17.6,0 -26.4,-0.878 l -2.64,3.082" /><path
         id="path76"
         style="fill:#0c6ea7;fill-opacity:1;fill-rule:nonzero;stroke:none"
         d="m 1611.31,241.16 c -54.13,-7.922 -76.13,-14.09 -89.77,-24.199 -17.6,-12.77 -19.81,-31.242 -19.81,-38.723 0,-22.457 14.97,-49.289 51.93,-49.289 24.21,0 39.61,8.36 57.65,23.762 z m 0.44,-128.941 c 0,0 -0.44,10.133 -0.44,15.402 -9.68,-7.039 -31.69,-22 -63.81,-22 -29.92,0 -73.49,17.609 -73.49,72.18 0,61.597 57.21,73.48 98.57,79.64 l 38.73,5.731 v 8.797 c 0,28.601 -8.36,46.203 -49.29,46.203 -29.48,0 -48.85,-10.563 -60.29,-16.723 l -3.52,1.762 c 0.44,3.961 0.88,17.598 1.32,20.68 l 2.2,3.089 c 11.44,5.27 33.89,14.52 65.58,14.52 53.68,0 70.85,-27.73 70.85,-59.859 v -113.09 c 0,-18.039 1.75,-36.961 2.64,-54.571 l -2.64,-3.082 c -3.09,-0.437 -15.85,-0.878 -23.77,-1.316 l -2.64,2.637" /><path
         id="path78"
         style="fill:#0c6ea7;fill-opacity:1;fill-rule:nonzero;stroke:none"
         d="m 1694.01,112.66 c 0,11.879 0.88,38.731 0.88,59.852 0,15.398 -0.88,73.488 -0.88,83.179 0,10.547 -1.32,50.598 -3.96,75.68 l 2.2,3.09 c 9.24,1.75 18.92,3.07 26.84,4.391 l 2.64,-2.641 c -0.44,-4.84 -1.76,-15.402 -1.76,-22.879 35.21,23.758 61.61,28.168 80.09,28.168 35.21,0 52.37,-17.609 59.41,-30.371 7.92,-14.52 8.8,-30.359 9.24,-62.481 0.89,-50.617 0.89,-87.578 3.53,-135.109 l -2.64,-2.641 c -8.81,0 -23.77,-0.878 -26.41,-0.878 l -2.2,3.082 c 0.44,20.238 0.88,40.488 0.88,60.73 0,23.758 0,101.207 -5.72,116.617 -9.24,25.52 -36.53,26.84 -44.01,26.84 -34.32,0 -62.49,-22.437 -71.29,-29.48 0.44,-57.207 1.76,-117.5 3.97,-174.27 l -2.65,-2.641 c -6.6,0 -22.88,-0.878 -25.96,-0.878 l -2.2,2.64" /><path
         id="path80"
         style="fill:#0c6ea7;fill-opacity:1;fill-rule:nonzero;stroke:none"
         d="m 2046.47,241.16 c -54.13,-7.922 -76.13,-14.09 -89.77,-24.199 -17.61,-12.77 -19.81,-31.242 -19.81,-38.723 0,-22.457 14.96,-49.289 51.93,-49.289 24.2,0 39.6,8.36 57.65,23.762 z m 0.44,-128.941 c 0,0 -0.44,10.133 -0.44,15.402 -9.68,-7.039 -31.69,-22 -63.81,-22 -29.92,0 -73.49,17.609 -73.49,72.18 0,61.597 57.21,73.48 98.57,79.64 l 38.73,5.731 v 8.797 c 0,28.601 -8.36,46.203 -49.29,46.203 -29.48,0 -48.85,-10.563 -60.29,-16.723 l -3.52,1.762 c 0.44,3.961 0.88,17.598 1.32,20.68 l 2.2,3.089 c 11.44,5.27 33.89,14.52 65.57,14.52 53.69,0 70.85,-27.73 70.85,-59.859 v -113.09 c 0,-18.039 1.76,-36.961 2.64,-54.571 l -2.64,-3.082 c -3.08,-0.437 -15.84,-0.878 -23.76,-1.316 l -2.64,2.637" /><path
         id="path82"
         style="fill:#0c6ea7;fill-opacity:1;fill-rule:nonzero;stroke:none"
         d="m 2204.41,315.531 c -22.88,0 -59.4,-12.32 -59.4,-58.519 0,-33.891 25.08,-55.012 57.65,-55.012 33.44,0 57.64,22.441 57.64,58.082 0,29.918 -20.68,55.449 -55.89,55.449 z M 2139.73,74.8203 c 0,-18.9297 13.64,-52.8086 67.77,-52.8086 37.84,0 64.24,20.2383 64.24,49.7188 0,16.7304 -5.27,33.0075 -52.8,46.6485 l -44.01,12.769 c -27.28,-21.128 -35.2,-40.0464 -35.2,-56.3277 z M 2306.95,334.02 c -0.88,-3.969 -1.32,-14.961 -1.76,-18.051 l -3.08,-2.637 c -9.24,0.879 -29.92,1.758 -44,2.637 14.08,-11.438 29.48,-28.16 29.48,-58.957 0,-35.653 -26.85,-76.141 -83.18,-76.141 -5.27,0 -12.75,0.438 -22,3.078 -5.28,-7.48 -9.68,-15.84 -14.08,-23.758 l 75.25,-22.441 c 37.85,-11.449 56.77,-33.891 56.77,-63.3711 C 2300.35,34.7695 2264.26,0 2205.74,0 c -55.45,0 -93.3,30.8086 -93.3,70.8516 0,33.0074 21.56,51.5004 42.25,66.8984 -6.6,2.629 -12.77,5.719 -19.36,7.922 l -1.33,4.84 c 9.69,13.636 17.61,26.398 24.65,39.597 -21.12,11.891 -40.92,29.481 -40.92,66.903 0,40.468 25.52,80.957 93.29,80.957 24.64,0 29.48,-0.438 36.08,-0.438 h 58.09 l 1.76,-3.511" /><path
         id="path84"
         style="fill:#0c6ea7;fill-opacity:1;fill-rule:nonzero;stroke:none"
         d="m 2486.91,249.09 c 0,2.629 -0.44,8.789 -1.33,14.961 -2.64,16.719 -14.52,55.89 -64.25,55.89 -5.72,0 -20.68,-0.441 -35.64,-8.812 -23.33,-12.758 -33.89,-37.41 -37.41,-62.039 z m 26.4,-22.461 h -166.35 v -1.75 c 0,-11.891 1.32,-36.969 16.28,-59.41 15.85,-23.328 41.37,-35.199 69.53,-35.199 28.17,0 53.25,11.429 72.62,29.039 l 3.52,-2.2 c -0.88,-8.371 -1.32,-16.73 -1.77,-25.078 l -2.19,-4.41 c -21.57,-11.43 -35.65,-21.562 -76.14,-21.562 -67.32,0 -110.01,45.332 -110.01,118.382 0,8.36 0.88,30.797 9.68,54.129 15.4,40.051 50.61,62.93 94.62,62.93 43.12,0 92.85,-23.328 92.85,-108.699 v -3.082 l -2.64,-3.09" /><path
         id="path86"
         style="fill:#0c6ea7;fill-opacity:1;fill-rule:nonzero;stroke:none"
         d="m 2555.52,112.66 c 0.44,19.801 0.88,34.328 0.88,54.57 0,31.239 -0.88,132.461 -5.28,164.141 l 2.64,3.09 c 8.8,1.75 18.93,3.07 26.85,4.391 l 2.63,-3.071 -0.88,-25.09 c 17.61,12.321 43.13,30.809 77.02,30.809 29.92,0 47.52,-17.168 56.32,-33.891 15.84,12.762 45.33,33.891 84.5,33.891 14.08,0 32.55,-3.09 46.2,-15.852 20.24,-18.476 21.56,-45.757 21.56,-85.367 0,-18.922 0.44,-98.14 2.21,-126.742 l -2.65,-2.641 c -9.68,-0.437 -18.04,-0.878 -24.2,-0.878 l -3.08,2.64 c 0.88,29.039 1.32,49.731 1.32,78.77 v 36.968 c 0,33.891 0,55.891 -9.24,70.411 -9.24,14.523 -29.93,18.043 -40.48,18.043 -32.13,0 -57.66,-19.813 -69.53,-29.481 1.75,-13.211 2.63,-19.371 2.63,-42.691 0,-19.801 2.64,-115.289 3.09,-131.141 l -2.21,-2.641 c -9.24,-0.437 -15.84,0 -25.52,-0.878 l -2.2,3.082 c 0.44,19.359 0.88,32.57 0.88,51.929 0,46.641 -0.88,99.02 -3.52,111.778 -6.6,33.882 -29.48,39.601 -45.77,39.601 -11.88,0 -36.09,-3.078 -66.89,-29.039 0.44,-72.609 2.64,-154.473 3.97,-173.832 l -3.09,-2.641 c -5.28,-0.437 -19.8,-0.878 -25.52,-0.878 l -2.64,2.64" /><path
         id="path88"
         style="fill:#0c6ea7;fill-opacity:1;fill-rule:nonzero;stroke:none"
         d="m 3077.81,249.09 c 0,2.629 -0.44,8.789 -1.31,14.961 -2.64,16.719 -14.53,55.89 -64.25,55.89 -5.73,0 -20.69,-0.441 -35.65,-8.812 -23.32,-12.758 -33.88,-37.41 -37.4,-62.039 z m 26.41,-22.461 h -166.35 v -1.75 c 0,-11.891 1.33,-36.969 16.29,-59.41 15.84,-23.328 41.37,-35.199 69.53,-35.199 28.17,0 53.24,11.429 72.61,29.039 l 3.52,-2.2 c -0.88,-8.371 -1.32,-16.73 -1.76,-25.078 l -2.2,-4.41 c -21.56,-11.43 -35.64,-21.562 -76.13,-21.562 -67.33,0 -110.02,45.332 -110.02,118.382 0,8.36 0.89,30.797 9.69,54.129 15.4,40.051 50.6,62.93 94.6,62.93 43.13,0 92.86,-23.328 92.86,-108.699 v -3.082 l -2.64,-3.09" /><path
         id="path90"
         style="fill:#0c6ea7;fill-opacity:1;fill-rule:nonzero;stroke:none"
         d="m 3145.99,112.66 c 0,11.879 0.89,38.731 0.89,59.852 0,15.398 -0.89,73.488 -0.89,83.179 0,10.547 -1.32,50.598 -3.96,75.68 l 2.2,3.09 c 9.25,1.75 18.93,3.07 26.85,4.391 l 2.63,-2.641 c -0.44,-4.84 -1.76,-15.402 -1.76,-22.879 35.21,23.758 61.62,28.168 80.1,28.168 35.2,0 52.36,-17.609 59.41,-30.371 7.92,-14.52 8.79,-30.359 9.23,-62.481 0.88,-50.617 0.88,-87.578 3.53,-135.109 l -2.65,-2.641 c -8.8,0 -23.76,-0.878 -26.39,-0.878 l -2.21,3.082 c 0.44,20.238 0.88,40.488 0.88,60.73 0,23.758 0,101.207 -5.71,116.617 -9.25,25.52 -36.54,26.84 -44.02,26.84 -34.31,0 -62.48,-22.437 -71.29,-29.48 0.44,-57.207 1.76,-117.5 3.97,-174.27 l -2.65,-2.641 c -6.59,0 -22.88,-0.878 -25.96,-0.878 l -2.2,2.64" /><path
         id="path92"
         style="fill:#0c6ea7;fill-opacity:1;fill-rule:nonzero;stroke:none"
         d="m 3460.6,313.332 c -8.8,0.438 -33,0.438 -49.29,0.879 V 183.07 c 0,-16.718 0.44,-28.16 3.09,-36.082 2.19,-6.609 6.16,-15.398 25.07,-15.398 10.57,0 17.61,3.961 20.25,4.84 l 3.52,-2.211 c -0.44,-3.508 -1.33,-13.199 -1.33,-19.797 l -3.07,-3.961 c -4.41,-0.879 -11.45,-2.629 -23.32,-2.629 -8.81,0 -29.48,0.438 -41.37,15.84 -10.57,13.637 -10.57,36.078 -10.57,52.359 0,25.09 0.44,61.61 0.44,98.129 v 40.051 c -5.71,0 -25.95,-0.879 -35.64,-0.879 l -2.2,3.078 c 0,4.399 0,11.879 0.88,18.051 l 2.65,2.629 c 10.12,0 28.6,-0.879 34.75,-0.879 -0.88,18.488 -0.88,39.609 -1.75,54.141 l 3.08,2.628 c 9.24,2.2 17.16,4.411 25.52,6.161 l 2.65,-2.629 c -0.44,-10.133 -0.89,-33.012 -2.21,-60.301 12.32,0 42.25,1.32 50.61,1.32 l 2.2,-3.07 c -0.44,-3.973 -0.44,-8.359 -0.88,-18.93 l -3.08,-2.199" /><path
         id="path94"
         style="fill:#0c6ea7;fill-opacity:1;fill-rule:nonzero;stroke:none"
         d="m 3770.36,383.301 c -19.8,11.879 -36.96,21.57 -70.41,21.57 -48.85,0 -69.53,-27.289 -69.53,-55.891 0,-32.128 23.77,-43.57 53.25,-55.89 l 36.53,-15.399 c 35.2,-14.961 67.77,-37.851 67.77,-84.929 0,-43.133 -31.69,-88.461 -102.54,-88.461 -12.32,0 -47.53,1.32 -79.65,22.437 l -1.77,4.852 c 0.89,8.789 1.33,19.801 1.77,26.398 l 4.4,0.883 c 4.4,-4.84 28.6,-30.812 75.25,-30.812 43.57,0 73.93,25.972 73.93,63.82 0,37.84 -33.88,53.242 -57.21,62.922 l -35.65,14.969 c -36.08,15.402 -64.24,40.48 -64.24,77.89 0,14.078 6.16,80.531 98.57,80.531 37.41,0 59.85,-10.121 73.94,-17.601 l 2.63,-3.531 -2.63,-21.559 -4.41,-2.199" /><path
         id="path96"
         style="fill:#0c6ea7;fill-opacity:1;fill-rule:nonzero;stroke:none"
         d="m 3922.15,318.621 c -60.29,0 -73.05,-51.5 -73.05,-95.062 0,-59.411 24.2,-94.61 71.73,-94.61 36.96,0 72.61,18.039 72.61,96.813 0,65.129 -31.24,92.859 -71.29,92.859 z m -0.88,-213 c -54.57,0 -101.66,31.688 -101.66,118.82 0,80.09 44.01,117.059 104.3,117.059 98.57,0 99.01,-101.219 99.01,-115.738 0,-86.25 -47.52,-120.141 -101.65,-120.141" /><path
         id="path98"
         style="fill:#0c6ea7;fill-opacity:1;fill-rule:nonzero;stroke:none"
         d="m 4222.68,153.148 c -0.88,-8.796 -2.2,-17.16 -2.64,-25.968 l -3.53,-5.27 c -15.84,-8.808 -29.04,-16.289 -60.73,-16.289 -7.48,0 -27.72,0.879 -47.52,10.129 -23.77,10.988 -57.2,40.469 -57.2,105.172 0,66.887 37.4,120.578 109.13,120.578 27.28,0 39.17,-5.289 56.76,-14.961 l 2.2,-3.969 c -0.88,-3.511 -2.2,-16.718 -3.07,-24.64 l -3.97,-1.758 c -14.96,13.637 -31.24,21.117 -52.36,21.117 -30.36,0 -80.98,-19.359 -80.98,-95.488 0,-55.891 30.37,-92.41 78.34,-92.41 34.32,0 53.24,18.039 61.16,25.519 l 4.41,-1.762" /><path
         id="path100"
         style="fill:#0c6ea7;fill-opacity:1;fill-rule:nonzero;stroke:none"
         d="m 4278.98,110.898 c -21.58,-0.437 -26.41,-0.437 -26.41,-0.437 l -2.2,2.199 c 0,11.449 0.44,42.25 0.44,55.891 0,33.449 -0.44,108.699 -3.96,162.82 l 2.63,2.649 26.41,3.949 2.65,-2.629 c -0.89,-20.25 -1.33,-30.371 -1.33,-47.531 0,-56.329 1.77,-117.938 4.4,-174.27 z m -33.89,300.571 c 0,8.801 0.44,22 0.44,27.281 l 3.51,3.52 c 9.25,0.878 19.37,2.199 28.17,2.64 l 3.08,-3.519 c 0,-9.243 -0.44,-22 -0.44,-27.282 l -3.08,-3.519 c -4.4,-0.891 -18.92,-1.77 -28.17,-2.649 l -3.51,3.528" /><path
         id="path102"
         style="fill:#0c6ea7;fill-opacity:1;fill-rule:nonzero;stroke:none"
         d="m 4488.43,249.09 c 0,2.629 -0.44,8.789 -1.32,14.961 -2.64,16.719 -14.52,55.89 -64.25,55.89 -5.72,0 -20.68,-0.441 -35.64,-8.812 -23.32,-12.758 -33.89,-37.41 -37.4,-62.039 z m 26.4,-22.461 h -166.34 v -1.75 c 0,-11.891 1.33,-36.969 16.29,-59.41 15.84,-23.328 41.36,-35.199 69.53,-35.199 28.16,0 53.24,11.429 72.6,29.039 l 3.52,-2.2 c -0.88,-8.371 -1.32,-16.73 -1.76,-25.078 l -2.19,-4.41 c -21.57,-11.43 -35.65,-21.562 -76.14,-21.562 -67.33,0 -110.02,45.332 -110.02,118.382 0,8.36 0.89,30.797 9.69,54.129 15.4,40.051 50.61,62.93 94.61,62.93 43.13,0 92.85,-23.328 92.85,-108.699 v -3.082 l -2.64,-3.09" /><path
         id="path104"
         style="fill:#0c6ea7;fill-opacity:1;fill-rule:nonzero;stroke:none"
         d="m 4639.78,313.332 c -8.8,0.438 -33,0.438 -49.29,0.879 V 183.07 c 0,-16.718 0.44,-28.16 3.09,-36.082 2.19,-6.609 6.16,-15.398 25.07,-15.398 10.57,0 17.61,3.961 20.25,4.84 l 3.52,-2.211 c -0.44,-3.508 -1.33,-13.199 -1.33,-19.797 l -3.07,-3.961 c -4.41,-0.879 -11.45,-2.629 -23.32,-2.629 -8.81,0 -29.48,0.438 -41.37,15.84 -10.57,13.637 -10.57,36.078 -10.57,52.359 0,25.09 0.44,61.61 0.44,98.129 v 40.051 c -5.71,0 -25.95,-0.879 -35.64,-0.879 l -2.2,3.078 c 0,4.399 0,11.879 0.88,18.051 l 2.65,2.629 c 10.11,0 28.6,-0.879 34.75,-0.879 -0.88,18.488 -0.88,39.609 -1.75,54.141 l 3.08,2.628 c 9.24,2.2 17.16,4.411 25.52,6.161 l 2.65,-2.629 c -0.44,-10.133 -0.89,-33.012 -2.21,-60.301 12.32,0 42.24,1.32 50.61,1.32 l 2.2,-3.07 c -0.44,-3.973 -0.44,-8.359 -0.88,-18.93 l -3.08,-2.199" /><path
         id="path106"
         style="fill:#0c6ea7;fill-opacity:1;fill-rule:nonzero;stroke:none"
         d="m 4830.3,333.141 c -6.16,-11.45 -21.56,-53.25 -59.84,-157.551 -20.24,-55.008 -42.25,-111.34 -57.21,-168.10953 l -3.08,-2.62891 c -3.08,0 -13.65,0.4375 -19.8,0.4375 h -7.49 l -2.63,2.63282 c 20.68,45.76952 30.36,72.17972 42.24,107.38712 -14.08,37.839 -27.28,74.363 -42.24,111.761 -4.85,11.891 -37.41,93.301 -42.69,105.18 l 2.64,3.961 c 8.8,0.879 18.48,1.32 25.96,2.199 l 3.97,-3.07 c 11.43,-33.008 23.76,-68.219 35.64,-101.219 l 30.8,-84.492 c 46.21,131.141 53.26,153.582 61.61,183.512 l 4.4,3.507 h 24.65 l 3.07,-3.507" /><g
         id="g108"><g
           clip-path="url(#clipPath114)"
           id="g110"><path
             id="path126"
             style="fill:url(#linearGradient124);fill-opacity:1;fill-rule:nonzero;stroke:none"
             d="m 790.523,107.82 -22.746,-0.09 c -30.718,2.391 -67.398,6.09 -97.98,10.43 v 0 C 728.703,147.238 937.523,943.938 811.152,1500.58 994.98,1184.46 863.145,138.398 790.523,107.82 m -211.527,1446.4 c -11.66,13.99 -21.269,29.76 -33.867,42.73 -19.727,20.26 -36.066,32.24 -44.109,37.59 -17.778,11.97 -36.317,14.47 -53.379,7.35 1.347,0.72 3.234,1.48 4.41,2.11 l 45.086,19.79 2.086,0.61 c 34.355,6.08 67.297,-75.02 79.773,-110.18 M 472.602,175.148 c -23.012,10.614 -51.997,25.301 -74.129,37.653 l -15.805,16.418 -2.723,20.23 C 435.625,265.359 593.797,1016.91 487.563,1477.7 653.703,1246.55 533.254,191.191 474.512,176.18 M 296.031,1453.76 c -7.476,5.39 -13.636,12.85 -21.98,17.44 -5.293,2.91 -14.246,7.51 -27.379,8.77 -11.348,1.02 -23.758,0.37 -41.953,-18.03 10.25,10.33 23.91,24.27 34.054,34.63 l 0.036,0.11 c 11.054,9.23 16.25,9.89 31.812,-1.74 2.797,-2.14 12.75,-11.2 25.41,-41.18 M 215.84,355.289 203.262,368.621 c -17.946,21.117 -29.774,41.027 -46.582,63.188 l -0.676,4.882 c 2.336,-0.011 -2.473,0.028 0,0 37.273,35.688 144.012,640.769 69.109,932.239 123.364,-190.05 37.344,-971 -2.308,-1014.399 -2.106,0.231 -5.071,-0.172 -6.965,0.758 M 93.957,1271.09 c -12.6562,-3.49 -13.4492,-3.66 -20.9336,-11.66 -9.6211,-10.5 -16.4218,-25.67 -19.0351,-31.39 4.2109,9.28 9.7578,21.84 13.9609,31.21 l 0.6016,1.17 c 9.2969,16.93 17.0859,20.18 25.4062,10.67 M 50.8711,608.5 c -12.8594,26.398 -22.8828,64.559 -31.4766,92.648 l -0.8945,3.161 1.5742,-4.571 c 0.5156,-0.828 1.1172,-1.949 1.6446,-2.758 0.9687,0.09 2.3984,0.18 3.5078,0.18 17.5,26.512 63.5078,393.38 27.4218,488.72 C 114.738,1176.35 78,645 56.6563,605.93 c -1.2344,-0.16 -2.7969,-0.321 -3.9649,-0.43 -0.5664,1.051 -1.4023,2.211 -1.8203,3" /></g></g><g
         id="g128"><g
           clip-path="url(#clipPath134)"
           id="g130"><g
             clip-path="url(#clipPath140)"
             id="g136"><path
               id="path158"
               style="fill:url(#linearGradient156);fill-opacity:1;fill-rule:nonzero;stroke:none"
               d="m 763,107 v 1 h -17 v 1 h -15 v 1 h -13 v 1 h -11 v 1 h -9 v 1 h -7 v 1 h -6 v 1 h -5 v 1 h -4 v 1 h -4 v 1 h -3 v 1 h -2 v 1 h -2 v 1 h -2 v 1 h -2 v 1 h -1 v 1 h -2 v 1 h -1 v 1 h -1 v 1 h -1 v 1 h -1 v 1 h -1 v 1 h -1 v 1 h -1 v 2 h -1 v 1 h -1 v 2 h -1 v 2 h -1 v 2 h -1 v 2 h -1 v 3 h -1 v 3 h -1 v 4 h -1 v 4 h -1 v 4 h -1 v 5 h -1 v 5 h -1 v 5 h -1 v 6 h -1 v 5 h -1 v 7 h -1 v 6 h -1 v 7 h -1 v 7 h -1 v 9 h -1 v 8 h -1 v 9 h -1 v 11 h -1 v 11 h -1 v 12 h -1 v 13 h -1 v 15 h -1 v 15 h -1 v 18 h -1 v 20 h -1 v 22 h -1 v 25 h -1 v 30 h -1 v 38 h -1 v 48 h -1 v 84 h -1 v 167 h 1 v 96 h 1 v 55 h 1 v 29 h 1 v 28 h 1 v 26 h 1 v 25 h 1 v 24 h 1 v 22 h 1 v 22 h 1 v 20 h 1 v 20 h 1 v 19 h 1 v 18 h 1 v 18 h 1 v 17 h 1 v 16 h 1 v 15 h 1 v 16 h 1 v 14 h 1 v 14 h 1 v 13 h 1 v 13 h 1 v 13 h 1 v 12 h 1 v 12 h 1 v 11 h 1 v 11 h 1 v 12 h 1 v 10 h 1 v 10 h 1 v 10 h 1 v 10 h 1 v 9 h 1 v 8 h 1 v 9 h 1 v 9 h 1 v 8 h 1 v 8 h 1 v 8 h 1 v 8 h 1 v 7 h 1 v 7 h 1 v 7 h 1 v 7 h 1 v 6 h 1 v 6 h 1 v 7 h 1 v 6 h 1 v 6 h 1 v 5 h 1 v 6 h 1 v 6 h 1 v 5 h 1 v 5 h 1 v 5 h 1 v 5 h 1 v 4 h 1 v 5 h 1 v 4 h 1 v 5 h 1 v 4 h 1 v 4 h 1 v 4 h 1 v 4 h 1 v 4 h 1 v 3 h 1 v 4 h 1 v 3 h 1 v 3 h 1 v 4 h 1 v 3 h 1 v 3 h 1 v 3 h 1 v 3 h 1 v 3 h 1 v 2 h 1 v 3 h 1 v 3 h 1 v 2 h 1 v 3 h 1 v 2 h 1 v 2 h 1 v 2 h 1 v 3 h 1 v 2 h 1 v 1 h 1 v 2 h 1 v 2 h 1 v 2 h 1 v 2 h 1 v 2 h 1 v 1 h 1 v 2 h 1 v 1 h 1 v 2 h 1 v 1 h 1 v 2 h 1 v 1 h 1 v 1 h 1 v 1 h 1 v 2 h 1 v 1 h 1 v 1 h 1 v 1 h 1 v 1 h 1 v 1 h 1 v 1 h 1 v 1 h 1 v 1 h 2 v 1 h 1 v 1 h 1 v 1 h 2 v 1 h 1 v 1 h 2 v 1 h 2 v 1 h 2 v 1 h 2 v 1 h 3 v 1 h 3 v 1 h 4 v 1 h 35 v 1 h 30 v -1 h -3 v -1 h -2 v -1 h -1 v -1 h -1 v -1 h -1 v -1 h -1 v -1 h -1 v -1 h -1 v -1 h -1 v -2 h -1 v -1 h -1 v -2 h -1 v -2 h -1 v -2 h -1 v -2 h -1 v -2 h -1 v -2 h -1 v -3 h -1 v -2 h -1 v -3 h -1 v -2 h -1 v -3 h -1 v -3 h -1 v -4 h -1 v -3 h -1 v -3 h -1 v -4 h -1 v -4 h -1 v -3 h -1 v -5 h -1 v -4 h -1 v -4 h -1 v -4 h -1 v -5 h -1 v -5 h -1 v -5 h -1 v -5 h -1 v -5 h -1 v -6 h -1 v -5 h -1 v -6 h -1 v -6 h -1 v -7 h -1 v -6 h -1 v -7 h -1 v -6 h -1 v -7 h -1 v -8 h -1 v -7 h -1 v -8 h -1 v -8 h -1 v -8 h -1 v -9 h -1 v -8 h -1 v -9 h -1 v -10 h -1 v -9 h -1 v -10 h -1 v -10 h -1 v -11 h -1 v -10 h -1 v -12 h -1 v -11 h -1 v -12 h -1 v -13 h -1 v -13 h -1 v -13 h -1 v -14 h -1 v -15 h -1 v -14 h -1 v -16 h -1 v -16 h -1 v -18 h -1 v -17 h -1 v -20 h -1 v -20 h -1 v -21 h -1 v -23 h -1 v -24 h -1 v -26 h -1 v -29 h -1 v -33 h -1 v -37 h -1 v -44 h -1 v -60 h -1 V 673 h 1 v -56 h 1 v -40 h 1 v -33 h 1 v -28 h 1 v -25 h 1 v -22 h 1 v -21 h 1 v -19 h 1 v -17 h 1 v -17 h 1 v -15 h 1 v -14 h 1 v -13 h 1 v -13 h 1 v -12 h 1 v -12 h 1 v -10 h 1 v -11 h 1 v -10 h 1 v -9 h 1 v -9 h 1 v -8 h 1 v -9 h 1 v -8 h 1 v -7 h 1 v -7 h 1 v -7 h 1 v -7 h 1 v -6 h 1 v -6 h 1 v -6 h 1 v -5 h 1 v -6 h 1 v -5 h 1 v -5 h 1 v -5 h 1 v -4 h 1 v -4 h 1 v -4 h 1 v -4 h 1 v -4 h 1 v -3 h 1 v -4 h 1 v -3 h 1 v -3 h 1 v -3 h 1 v -3 h 1 v -2 h 1 v -2 h 1 v -3 h 1 v -2 h 1 v -2 h 1 v -2 h 1 v -2 h 1 v -1 h 1 v -2 h 1 v -1 h 1 v -2 h 1 v -1 h 1 v -1 h 3 v -1 z m -294,69 v 1 h -3 v 1 h -2 v 1 h -2 v 1 h -2 v 1 h -2 v 1 h -2 v 1 h -2 v 1 h -2 v 1 h -2 v 1 h -2 v 1 h -2 v 1 h -2 v 1 h -2 v 1 h -2 v 1 h -2 v 1 h -2 v 1 h -2 v 1 h -2 v 1 h -2 v 1 h -2 v 1 h -2 v 1 h -2 v 1 h -1 v 1 h -2 v 1 h -2 v 1 h -2 v 1 h -2 v 1 h -2 v 1 h -2 v 1 h -2 v 1 h -2 v 1 h -2 v 1 h -2 v 1 h -2 v 1 h -1 v 1 h -2 v 1 h -2 v 1 h -2 v 1 h -1 v 1 h -2 v 1 h -1 v 1 h -2 v 1 h -1 v 1 h -1 v 1 h -1 v 1 h -2 v 1 h -1 v 1 h -1 v 1 h -1 v 1 h -1 v 1 h -1 v 1 h -1 v 2 h -1 v 1 h -1 v 1 h -1 v 1 h -1 v 2 h -1 v 1 h -1 v 2 h -1 v 1 h -1 v 2 h -1 v 2 h -1 v 2 h -1 v 2 h -1 v 2 h -1 v 2 h -1 v 2 h -1 v 2 h -1 v 3 h -1 v 2 h -1 v 3 h -1 v 2 h -1 v 3 h -1 v 3 h -1 v 3 h -1 v 4 h -1 v 3 h -1 v 4 h -1 v 3 h -1 v 4 h -1 v 4 h -1 v 5 h -1 v 4 h -1 v 5 h -1 v 5 h -1 v 6 h -1 v 5 h -1 v 6 h -1 v 6 h -1 v 7 h -1 v 7 h -1 v 7 h -1 v 8 h -1 v 9 h -1 v 9 h -1 v 9 h -1 v 11 h -1 v 11 h -1 v 13 h -1 v 14 h -1 v 16 h -1 v 17 h -1 v 21 h -1 v 25 h -1 v 31 h -1 v 47 h -1 v 172 h 1 v 61 h 1 v 46 h 1 v 39 h 1 v 31 h 1 v 27 h 1 v 25 h 1 v 25 h 1 v 22 h 1 v 21 h 1 v 20 h 1 v 19 h 1 v 18 h 1 v 17 h 1 v 17 h 1 v 15 h 1 v 15 h 1 v 15 h 1 v 13 h 1 v 14 h 1 v 13 h 1 v 12 h 1 v 12 h 1 v 11 h 1 v 11 h 1 v 11 h 1 v 10 h 1 v 10 h 1 v 10 h 1 v 9 h 1 v 9 h 1 v 9 h 1 v 9 h 1 v 7 h 1 v 8 h 1 v 8 h 1 v 8 h 1 v 7 h 1 v 7 h 1 v 7 h 1 v 7 h 1 v 6 h 1 v 7 h 1 v 6 h 1 v 6 h 1 v 5 h 1 v 6 h 1 v 6 h 1 v 5 h 1 v 5 h 1 v 5 h 1 v 5 h 1 v 5 h 1 v 5 h 1 v 4 h 1 v 5 h 1 v 4 h 1 v 4 h 1 v 4 h 1 v 4 h 1 v 4 h 1 v 4 h 1 v 4 h 1 v 3 h 1 v 3 h 1 v 4 h 1 v 3 h 1 v 3 h 1 v 4 h 1 v 3 h 1 v 3 h 1 v 3 h 1 v 2 h 1 v 3 h 1 v 3 h 1 v 2 h 1 v 3 h 1 v 2 h 1 v 3 h 1 v 2 h 1 v 2 h 1 v 3 h 1 v 2 h 1 v 2 h 1 v 2 h 1 v 2 h 1 v 2 h 1 v 2 h 1 v 1 h 1 v 2 h 1 v 2 h 1 v 2 h 1 v 1 h 1 v 2 h 1 v 1 h 1 v 2 h 1 v 1 h 1 v 2 h 1 v 1 h 1 v 1 h 1 v 2 h 1 v 1 h 1 v 1 h 1 v 1 h 1 v 1 h 1 v 1 h 1 v 2 h 1 v 1 h 1 v 1 h 2 v 1 h 1 v 1 h 1 v 1 h 1 v 1 h 1 v 1 h 1 v 1 h 1 v 1 h 2 v 1 h 1 v 1 h 2 v 1 h 1 v 1 h 2 v 1 h 2 v 1 h 3 v 1 h 2 v 1 h 2 v 1 h 2 v 1 h 2 v 1 h 3 v 1 h 2 v 1 h 2 v 1 h 3 v 1 h 2 v 1 h 2 v 1 h 3 v 1 h 2 v 1 h 2 v 1 h 3 v 1 h 2 v 1 h 2 v 1 h 3 v 1 h 2 v 1 h 2 v -2 h -2 v -1 h -1 v -1 h -1 v -2 h -1 v -1 h -1 v -1 h -1 v -2 h -1 v -1 h -1 v -2 h -1 v -1 h -1 v -2 h -1 v -2 h -1 v -2 h -1 v -2 h -1 v -2 h -1 v -2 h -1 v -2 h -1 v -2 h -1 v -3 h -1 v -3 h -1 v -3 h -1 v -2 h -1 v -3 h -1 v -3 h -1 v -3 h -1 v -3 h -1 v -3 h -1 v -4 h -1 v -3 h -1 v -4 h -1 v -4 h -1 v -4 h -1 v -4 h -1 v -4 h -1 v -4 h -1 v -5 h -1 v -5 h -1 v -5 h -1 v -5 h -1 v -5 h -1 v -5 h -1 v -5 h -1 v -6 h -1 v -6 h -1 v -6 h -1 v -7 h -1 v -6 h -1 v -6 h -1 v -7 h -1 v -8 h -1 v -7 h -1 v -8 h -1 v -8 h -1 v -8 h -1 v -8 h -1 v -10 h -1 v -9 h -1 v -10 h -1 v -9 h -1 v -10 h -1 v -12 h -1 v -12 h -1 v -11 h -1 v -12 h -1 v -14 h -1 v -14 h -1 v -14 h -1 v -15 h -1 v -17 h -1 v -18 h -1 v -18 h -1 v -20 h -1 v -23 h -1 v -22 h -1 v -29 h -1 v -29 h -1 v -39 h -1 v -46 h -1 v -84 h -1 V 840 h 1 v -81 h 1 v -50 h 1 v -39 h 1 v -31 h 1 v -30 h 1 v -25 h 1 v -23 h 1 v -22 h 1 v -19 h 1 v -19 h 1 v -18 h 1 v -16 h 1 v -15 h 1 v -16 h 1 v -13 h 1 v -13 h 1 v -13 h 1 v -13 h 1 v -11 h 1 v -10 h 1 v -11 h 1 v -11 h 1 v -9 h 1 v -9 h 1 v -9 h 1 v -9 h 1 v -8 h 1 v -7 h 1 v -8 h 1 v -7 h 1 v -7 h 1 v -7 h 1 v -6 h 1 v -6 h 1 v -5 h 1 v -6 h 1 v -6 h 1 v -4 h 1 v -5 h 1 v -4 h 1 v -4 h 1 v -5 h 1 v -4 h 1 v -3 h 1 v -3 h 1 v -3 h 1 v -3 h 1 v -3 h 1 v -3 h 1 v -2 h 1 v -2 h 1 v -3 h 1 v -2 h 1 v -1 h 1 v -1 h 1 v -1 z M 215,355 v 1 h -1 v 1 h -1 v 1 h -1 v 1 h -1 v 1 h -1 v 1 h -1 v 1 h -1 v 1 h -1 v 1 h -1 v 1 h -1 v 1 h -1 v 1 h -1 v 1 h -1 v 2 h -1 v 1 h -1 v 1 h -1 v 1 h -1 v 1 h -1 v 1 h -1 v 1 h -1 v 2 h -1 v 1 h -1 v 1 h -1 v 1 h -1 v 1 h -1 v 1 h -1 v 2 h -1 v 1 h -1 v 1 h -1 v 1 h -1 v 1 h -1 v 1 h -1 v 2 h -1 v 1 h -1 v 1 h -1 v 1 h -1 v 2 h -1 v 1 h -1 v 1 h -1 v 1 h -1 v 2 h -1 v 1 h -1 v 1 h -1 v 2 h -1 v 1 h -1 v 1 h -1 v 2 h -1 v 1 h -1 v 2 h -1 v 1 h -1 v 2 h -1 v 1 h -1 v 2 h -1 v 1 h -1 v 2 h -1 v 2 h -1 v 1 h -1 v 2 h -1 v 2 h -1 v 1 h -1 v 2 h -1 v 2 h -1 v 2 h -1 v 2 h -1 v 2 h -1 v 2 h -1 v 2 h -1 v 2 h -1 v 2 h -1 v 3 h -1 v 2 h -1 v 2 h -1 v 3 h -1 v 2 h -1 v 3 h -1 v 3 h -1 v 2 h -1 v 3 h -1 v 3 h -1 v 4 h -1 v 3 h -1 v 3 h -1 v 4 h -1 v 3 h -1 v 4 h -1 v 4 h -1 v 5 h -1 v 4 h -1 v 4 h -1 v 6 h -1 v 5 h -1 v 5 h -1 v 6 h -1 v 6 h -1 v 7 h -1 v 7 h -1 v 8 h -1 v 8 h -1 v 9 h -1 v 11 h -1 v 11 h -1 v 13 h -1 v 15 h -1 v 17 h -1 v 22 h -1 v 31 h -1 v 180 h 1 v 47 h 1 v 32 h 1 v 25 h 1 v 21 h 1 v 20 h 1 v 19 h 1 v 16 h 1 v 15 h 1 v 15 h 1 v 13 h 1 v 12 h 1 v 13 h 1 v 11 h 1 v 11 h 1 v 10 h 1 v 10 h 1 v 10 h 1 v 8 h 1 v 9 h 1 v 8 h 1 v 9 h 1 v 7 h 1 v 7 h 1 v 8 h 1 v 7 h 1 v 7 h 1 v 6 h 1 v 6 h 1 v 7 h 1 v 6 h 1 v 6 h 1 v 6 h 1 v 5 h 1 v 5 h 1 v 5 h 1 v 5 h 1 v 5 h 1 v 5 h 1 v 5 h 1 v 4 h 1 v 4 h 1 v 5 h 1 v 4 h 1 v 5 h 1 v 3 h 1 v 4 h 1 v 4 h 1 v 4 h 1 v 3 h 1 v 4 h 1 v 4 h 1 v 3 h 1 v 3 h 1 v 3 h 1 v 3 h 1 v 3 h 1 v 4 h 1 v 3 h 1 v 3 h 1 v 2 h 1 v 3 h 1 v 3 h 1 v 2 h 1 v 3 h 1 v 2 h 1 v 3 h 1 v 2 h 1 v 3 h 1 v 2 h 1 v 2 h 1 v 2 h 1 v 2 h 1 v 2 h 1 v 2 h 1 v 3 h 1 v 2 h 1 v 1 h 1 v 2 h 1 v 2 h 1 v 2 h 1 v 1 h 1 v 2 h 1 v 2 h 1 v 1 h 1 v 2 h 1 v 2 h 1 v 1 h 1 v 1 h 1 v 2 h 1 v 1 h 1 v 2 h 1 v 1 h 1 v 1 h 1 v 1 h 1 v 2 h 1 v 1 h 1 v 1 h 1 v 1 h 1 v 1 h 1 v 1 h 1 v 1 h 1 v 1 h 1 v 1 h 1 v 1 h 1 v 1 h 1 v 1 h 1 v 1 h 1 v 1 h 1 v 1 h 1 v 1 h 1 v 1 h 1 v 1 h 1 v 1 h 1 v 1 h 1 v 1 h 1 v 1 h 1 v 1 h 1 v 1 h 1 v 1 h 1 v 1 h 1 v 1 h 1 v 1 h 1 v 1 h 1 v 1 h 1 v 1 h 1 v 1 h 1 v 1 h 1 v 1 h 1 v 1 h 1 v -2 h -1 v -1 h -1 v -1 h -1 v -1 h -1 v -2 h -1 v -2 h -1 v -2 h -1 v -1 h -1 v -2 h -1 v -2 h -1 v -2 h -1 v -3 h -1 v -2 h -1 v -2 h -1 v -3 h -1 v -2 h -1 v -2 h -1 v -4 h -1 v -3 h -1 v -3 h -1 v -3 h -1 v -3 h -1 v -3 h -1 v -4 h -1 v -4 h -1 v -4 h -1 v -4 h -1 v -4 h -1 v -4 h -1 v -4 h -1 v -5 h -1 v -6 h -1 v -5 h -1 v -5 h -1 v -5 h -1 v -6 h -1 v -6 h -1 v -6 h -1 v -6 h -1 v -6 h -1 v -7 h -1 v -8 h -1 v -8 h -1 v -7 h -1 v -8 h -1 v -9 h -1 v -9 h -1 v -9 h -1 v -9 h -1 v -11 h -1 v -11 h -1 v -11 h -1 v -12 h -1 v -14 h -1 v -13 h -1 v -15 h -1 v -16 h -1 v -17 h -1 v -19 h -1 v -20 h -1 v -24 h -1 v -26 h -1 v -33 h -1 v -44 h -1 V 895 h -1 v -16 h 1 v -93 h 1 v -44 h 1 v -33 h 1 v -28 h 1 v -25 h 1 v -21 h 1 v -20 h 1 v -17 h 1 v -17 h 1 v -16 h 1 v -14 h 1 v -14 h 1 v -12 h 1 v -12 h 1 v -12 h 1 v -10 h 1 v -10 h 1 v -9 h 1 v -9 h 1 v -9 h 1 v -8 h 1 v -8 h 1 v -7 h 1 v -6 h 1 v -7 h 1 v -6 h 1 v -6 h 1 v -5 h 1 v -5 h 1 v -6 h 1 v -4 h 1 v -4 h 1 v -4 h 1 v -4 h 1 v -3 h 1 v -3 h 1 v -4 h 1 v -2 h 1 v -2 h 1 v -2 h 1 v -1 h 1 v -2 z M 50,609 v 1 h -1 v 3 h -1 v 3 h -1 v 2 h -1 v 3 h -1 v 3 h -1 v 3 h -1 v 3 h -1 v 2 h -1 v 3 h -1 v 3 h -1 v 3 h -1 v 3 h -1 v 3 h -1 v 3 h -1 v 3 h -1 v 3 h -1 v 3 h -1 v 3 h -1 v 3 h -1 v 3 h -1 v 3 h -1 v 3 h -1 v 3 h -1 v 3 h -1 v 3 h -1 v 3 h -1 v 3 h -1 v 3 h -1 v 3 h -1 v 4 h -1 v 3 h -1 v 5 h -1 v 5 h -1 v 7 h -1 v 7 h -1 v 8 h -1 v 9 h -1 v 10 h -1 v 11 h -1 v 11 H 9 v 13 H 8 v 13 H 7 v 14 H 6 v 16 H 5 v 16 H 4 v 17 H 3 v 18 H 2 v 19 H 1 v 20 H 0 v 34 h 1 v 9 h 1 v 9 h 1 v 8 h 1 v 8 h 1 v 8 h 1 v 8 h 1 v 8 h 1 v 7 h 1 v 7 h 1 v 8 h 1 v 6 h 1 v 7 h 1 v 7 h 1 v 6 h 1 v 7 h 1 v 6 h 1 v 6 h 1 v 6 h 1 v 6 h 1 v 6 h 1 v 5 h 1 v 6 h 1 v 5 h 1 v 5 h 1 v 5 h 1 v 5 h 1 v 5 h 1 v 5 h 1 v 5 h 1 v 5 h 1 v 4 h 1 v 4 h 1 v 5 h 1 v 4 h 1 v 4 h 1 v 4 h 1 v 4 h 1 v 4 h 1 v 3 h 1 v 4 h 1 v 4 h 1 v 3 h 1 v 3 h 1 v 4 h 1 v 3 h 1 v 3 h 1 v 3 h 1 v 3 h 1 v 3 h 1 v 3 h 1 v 3 h 1 v 2 h 1 v 3 h 1 v 2 h 1 v 2 h 1 v 2 h 1 v 3 h 1 v 2 h 1 v 2 h 1 v 2 h 1 v 2 h 1 v 3 h 1 v 2 h 1 v 2 h 1 v 2 h 1 v 3 h 1 v 2 h 1 v -3 h -1 v -3 h -1 v -2 h -1 v -3 h -1 v -2 h -1 v -3 h -1 v -2 h -1 v -3 h -1 v -3 h -1 v -3 h -1 v -3 h -1 v -3 h -1 v -4 h -1 v -3 h -1 v -4 h -1 v -3 h -1 v -4 h -1 v -4 h -1 v -4 h -1 v -5 h -1 v -4 h -1 v -5 h -1 v -5 h -1 v -5 h -1 v -5 h -1 v -6 h -1 v -6 h -1 v -6 h -1 v -7 h -1 v -6 h -1 v -8 h -1 v -8 h -1 v -8 h -1 v -9 h -1 v -10 h -1 v -10 h -1 v -12 h -1 v -12 h -1 v -15 h -1 v -18 h -1 v -22 H 27 V 978 H 26 V 872 h 1 v -33 h 1 v -25 h 1 v -20 h 1 v -17 h 1 v -16 h 1 v -14 h 1 v -12 h 1 v -12 h 1 v -11 h 1 v -10 h 1 v -10 h 1 v -9 h 1 v -8 h 1 v -8 h 1 v -8 h 1 v -7 h 1 v -6 h 1 v -6 h 1 v -6 h 1 v -6 h 1 v -5 h 1 v -4 h 1 v -5 h 1 v -3 h 1 v -2" /></g></g></g></g></g></svg>